<svg width="270" height="247" viewBox="0 0 270 247" fill="none" xmlns="http://www.w3.org/2000/svg"><g filter="url(#filter0_f_1860_24)"><path d="M55.902 138.873l-11.873-1.245-2.391-2.929 9.837 1.497-2.942-4.15 18.843 6.05-15.264-2.997 3.79 3.774z" fill="#fff" fill-opacity=".5"/><path d="M55.902 138.873l-11.873-1.245-2.391-2.929 9.837 1.497-2.942-4.15 18.843 6.05-15.264-2.997 3.79 3.774z" stroke="#fff" stroke-opacity=".4"/></g><g filter="url(#filter1_f_1860_24)"><path d="M55.902 138.873l-11.873-1.245-2.391-2.929 9.837 1.497-2.942-4.15 18.843 6.05-15.264-2.997 3.79 3.774z" fill="#fff" fill-opacity=".5"/><path d="M55.902 138.873l-11.873-1.245-2.391-2.929 9.837 1.497-2.942-4.15 18.843 6.05-15.264-2.997 3.79 3.774z" stroke="#fff" stroke-opacity=".4"/></g><path d="M55.902 138.873l-11.873-1.245-2.391-2.929 9.837 1.497-2.942-4.15 18.843 6.05-15.264-2.997 3.79 3.774z" fill="#fff" fill-opacity=".5" stroke="#fff" stroke-opacity=".4"/><path d="M55.902 138.873l-11.873-1.245-2.391-2.929 9.837 1.497-2.942-4.15 18.843 6.05-15.264-2.997 3.79 3.774z" fill="#fff" fill-opacity=".5" stroke="#fff" stroke-opacity=".55"/><g filter="url(#filter2_f_1860_24)"><path d="M61.565 204.001l-5.52 1.825-1.714-.679 4.677-1.33-2.232-1.049 9.676-1.303-7.41 1.799 2.523.737z" stroke="#fff" stroke-opacity=".4"/></g><g filter="url(#filter3_f_1860_24)"><path d="M61.565 204.001l-5.52 1.825-1.714-.679 4.677-1.33-2.232-1.049 9.676-1.303-7.41 1.799 2.523.737z" stroke="#fff" stroke-opacity=".4"/></g><path d="M61.565 204.001l-5.52 1.825-1.714-.679 4.677-1.33-2.232-1.049 9.676-1.303-7.41 1.799 2.523.737z" fill="#fff" stroke="#fff"/><g filter="url(#filter4_f_1860_24)"><path d="M210.39 23.479l5.726-6.8 2.717-.603-5.016 5.5 3.661-.584-11.467 9.624 8.178-8.341-3.799 1.204z" stroke="#fff" stroke-opacity=".7"/></g><path d="M210.39 23.479l5.726-6.8 2.717-.603-5.016 5.5 3.661-.584-11.467 9.624 8.178-8.341-3.799 1.204z" fill="#fff" stroke="#fff" stroke-opacity=".55"/><g filter="url(#filter5_f_1860_24)"><path d="M247.089 98.299l4.378-2.636 1.59.177-3.75 2.06 2.1.362-8.025 3.106 5.997-3.019-2.29-.05z" stroke="#fff" stroke-opacity=".7"/></g><path d="M247.089 98.299l4.378-2.636 1.59.177-3.75 2.06 2.1.362-8.025 3.106 5.997-3.019-2.29-.05z" fill="#fff" stroke="#fff" stroke-opacity=".55"/><g filter="url(#filter6_f_1860_24)"><path d="M232.499 203.829l8.44 2.792 1.569 2.299-6.97-2.615 1.902 3.182-13.194-7.072 10.781 4.495-2.528-3.081z" stroke="#fff" stroke-opacity=".7"/></g><path d="M232.499 203.829l8.44 2.792 1.569 2.299-6.97-2.615 1.902 3.182-13.194-7.072 10.781 4.495-2.528-3.081z" fill="#fff" stroke="#fff" stroke-opacity=".55"/><defs><filter id="filter0_f_1860_24" x=".43" y="91.111" width="107.092" height="88.41" filterUnits="userSpaceOnUse" color-interpolation-filters="sRGB"><feFlood flood-opacity="0" result="BackgroundImageFix"/><feBlend in="SourceGraphic" in2="BackgroundImageFix" result="shape"/><feGaussianBlur stdDeviation="20" result="effect1_foregroundBlur_1860_24"/></filter><filter id="filter1_f_1860_24" x="25.43" y="116.111" width="57.092" height="38.41" filterUnits="userSpaceOnUse" color-interpolation-filters="sRGB"><feFlood flood-opacity="0" result="BackgroundImageFix"/><feBlend in="SourceGraphic" in2="BackgroundImageFix" result="shape"/><feGaussianBlur stdDeviation="7.5" result="effect1_foregroundBlur_1860_24"/></filter><filter id="filter2_f_1860_24" x="12.775" y="160.969" width="93.799" height="85.388" filterUnits="userSpaceOnUse" color-interpolation-filters="sRGB"><feFlood flood-opacity="0" result="BackgroundImageFix"/><feBlend in="SourceGraphic" in2="BackgroundImageFix" result="shape"/><feGaussianBlur stdDeviation="20" result="effect1_foregroundBlur_1860_24"/></filter><filter id="filter3_f_1860_24" x="37.775" y="185.969" width="43.799" height="35.388" filterUnits="userSpaceOnUse" color-interpolation-filters="sRGB"><feFlood flood-opacity="0" result="BackgroundImageFix"/><feBlend in="SourceGraphic" in2="BackgroundImageFix" result="shape"/><feGaussianBlur stdDeviation="7.5" result="effect1_foregroundBlur_1860_24"/></filter><filter id="filter4_f_1860_24" x="190.661" y=".245" width="44.601" height="45.756" filterUnits="userSpaceOnUse" color-interpolation-filters="sRGB"><feFlood flood-opacity="0" result="BackgroundImageFix"/><feBlend in="SourceGraphic" in2="BackgroundImageFix" result="shape"/><feGaussianBlur stdDeviation="7.5" result="effect1_foregroundBlur_1860_24"/></filter><filter id="filter5_f_1860_24" x="228.164" y="80.147" width="41.514" height="36.687" filterUnits="userSpaceOnUse" color-interpolation-filters="sRGB"><feFlood flood-opacity="0" result="BackgroundImageFix"/><feBlend in="SourceGraphic" in2="BackgroundImageFix" result="shape"/><feGaussianBlur stdDeviation="7.5" result="effect1_foregroundBlur_1860_24"/></filter><filter id="filter6_f_1860_24" x="209.005" y="186.958" width="49.805" height="38.82" filterUnits="userSpaceOnUse" color-interpolation-filters="sRGB"><feFlood flood-opacity="0" result="BackgroundImageFix"/><feBlend in="SourceGraphic" in2="BackgroundImageFix" result="shape"/><feGaussianBlur stdDeviation="7.5" result="effect1_foregroundBlur_1860_24"/></filter></defs></svg>