<svg width="6" height="10" viewBox="0 0 6 10" fill="none" xmlns="http://www.w3.org/2000/svg">
<path fill-rule="evenodd" clip-rule="evenodd" d="M2.77826 0.503938C2.01212 0.585332 1.39633 0.884931 0.882667 1.4262C-0.0224558 2.37995 -0.256056 3.81377 0.29632 5.02512C0.411793 5.27835 2.79668 9.34364 2.87931 9.42813C2.98355 9.53467 3.14734 9.52112 3.23846 9.39839C3.30608 9.30731 5.60165 5.2617 5.68532 5.08615C5.82264 4.79801 5.91252 4.51018 5.97093 4.17159C6.00605 3.96793 6.01031 3.4245 5.97844 3.21246C5.87316 2.51196 5.58707 1.91333 5.12478 1.4262C4.66479 0.941493 4.08192 0.631423 3.43909 0.529439C3.30613 0.508355 2.88843 0.492235 2.77826 0.503938ZM3.35391 1.04851C3.87461 1.12505 4.39777 1.40115 4.77225 1.79707C5.12446 2.16946 5.3533 2.6193 5.46096 3.15086C5.5153 3.41923 5.51549 3.90681 5.46132 4.17159C5.41134 4.41605 5.33887 4.63594 5.24097 4.84033C5.19693 4.93229 4.68402 5.8456 4.10118 6.86992L3.04147 8.73233L1.93812 6.85867C1.33128 5.82816 0.801315 4.91486 0.760447 4.82909C0.596542 4.48518 0.518847 4.16307 0.504184 3.76682C0.459191 2.55056 1.1944 1.47181 2.30264 1.12797C2.63519 1.02479 3.0032 0.996982 3.35391 1.04851ZM2.73206 2.10401C2.16671 2.21697 1.70171 2.67318 1.54843 3.26525C1.4965 3.46586 1.49624 3.85463 1.54788 4.05719C1.66041 4.49848 1.9548 4.87759 2.34008 5.07744C2.57746 5.20058 2.71477 5.23284 3.00372 5.2334C3.29185 5.23395 3.4267 5.20229 3.66711 5.07758C4.05376 4.87703 4.34667 4.49985 4.45957 4.05719C4.51121 3.85463 4.51094 3.46586 4.45902 3.26525C4.31687 2.71621 3.89355 2.27079 3.3795 2.12938C3.20267 2.08074 2.90657 2.06914 2.73206 2.10401ZM3.20749 2.62475C3.36721 2.65986 3.55523 2.76565 3.68139 2.89139C3.80977 3.01935 3.88849 3.14455 3.95247 3.32259C3.98919 3.42477 3.99527 3.47056 3.99628 3.65243C3.99751 3.87695 3.98009 3.96005 3.89296 4.14519C3.77154 4.40315 3.50653 4.62285 3.23564 4.69013C2.61293 4.8448 2.0032 4.33891 2.0019 3.66649C2.00157 3.49428 2.02672 3.38014 2.10336 3.20619C2.22381 2.93282 2.49263 2.70268 2.77623 2.63017C2.88528 2.60228 3.09337 2.59967 3.20749 2.62475Z" fill="white"/>
</svg>
