<svg width="2586" height="1244" viewBox="0 0 2586 1244" fill="none" xmlns="http://www.w3.org/2000/svg"><path d="M277.123 665.078l75.469-.066-109.637 218.409-79.472.349 113.64-218.692zm476.69 68.746H607.646l-24.615 49.567h-79L641.23 521.449h79l137.196 261.942h-79l-24.613-49.567zm-120.788-51.092h95.79l-47.703-96.465-48.087 96.465zm569.435 100.659V599.422l-97.32 183.969h-67.93l-97.319-183.969v183.969h-70.793V521.449h96.175l105.907 198.268 105.9-198.268h95.79v261.942h-70.41zm454.56 0V599.422l-97.32 183.969h-67.92l-97.33-183.969v183.969h-70.79V521.449h96.18l105.9 198.268 105.9-198.268h95.79v261.942h-70.41zm121.2 0V521.449h265.43v55.858h-192.72v43.276h182.8v55.858h-182.8v51.092h195.39v55.858h-268.1zm376.14 0h-70.79V521.449h177.46c19.08 0 35.24 1.97 48.46 5.91 13.36 3.94 24.17 9.532 32.45 16.776 8.39 7.245 14.43 16.015 18.12 26.309 3.82 10.168 5.73 21.542 5.73 34.125 0 11.058-1.6 20.716-4.78 28.978-3.05 8.261-7.24 15.378-12.59 21.352-5.21 5.846-11.32 10.803-18.32 14.87a124.322 124.322 0 01-22.13 10.104l85.86 103.518h-82.81l-79.38-96.464h-77.28v96.464zm139.87-179.203c0-5.084-.7-9.405-2.1-12.964-1.27-3.558-3.56-6.418-6.87-8.579-3.3-2.288-7.76-3.94-13.35-4.956-5.48-1.017-12.35-1.526-20.61-1.526h-96.94v56.049h96.94c8.26 0 15.13-.508 20.61-1.525 5.59-1.016 10.05-2.605 13.35-4.766 3.31-2.288 5.6-5.211 6.87-8.77 1.4-3.559 2.1-7.879 2.1-12.963z" fill="#fff"/><path d="M362.99 485.939l73.914.119-62.596 124.013-76.351-.036 65.033-124.096z" fill="#C7E80A"/><path d="M503.779 491.93l74.088-.001-145.735 290.074-79.789-.001L503.779 491.93zm-293.344 0l74.089-.001-145.735 290.074L59 782.002 210.435 491.93z" fill="#fff"/></svg>