<svg width="9" height="10" viewBox="0 0 9 10" fill="none" xmlns="http://www.w3.org/2000/svg">
<path fill-rule="evenodd" clip-rule="evenodd" d="M1.59895 0.51984C1.45448 0.556264 1.30842 0.638088 1.15902 0.766314C0.993354 0.908493 0.397078 1.51219 0.300021 1.63602C-0.0933639 2.13785 -0.0999686 2.91821 0.280631 3.92437C0.745608 5.15357 1.61672 6.39965 2.71833 7.41138C4.23753 8.80662 6.27048 9.71084 7.31863 9.4575C7.47386 9.41998 7.73197 9.30006 7.85056 9.21037C7.96958 9.12035 8.76854 8.30359 8.84273 8.19609C8.97985 7.9974 9.03274 7.73142 8.97976 7.50707C8.92053 7.25623 8.901 7.23225 8.13186 6.46585C7.35634 5.6931 7.33257 5.67406 7.07574 5.62008C6.87354 5.57756 6.66694 5.61504 6.46707 5.73048C6.42047 5.7574 6.20179 5.95701 5.98109 6.17408L5.57985 6.56874L5.45131 6.50215C5.13557 6.33859 4.90264 6.18151 4.55457 5.89736C4.19714 5.60558 3.69898 5.09259 3.42397 4.73311C3.2253 4.47342 2.93104 3.99354 2.93019 3.92786C2.93003 3.91526 3.06758 3.77116 3.23586 3.60765C3.58852 3.26498 3.7283 3.10468 3.80708 2.95259C3.9066 2.76042 3.92566 2.51843 3.8571 2.31725C3.78747 2.11285 3.72171 2.03542 3.04632 1.36262C2.37863 0.697511 2.27618 0.610074 2.08662 0.543454C1.95321 0.496577 1.7335 0.485931 1.59895 0.51984ZM2.008 1.0131C2.05819 1.0417 2.33972 1.3085 2.71947 1.68735C3.40709 2.37337 3.43266 2.40565 3.43176 2.58704C3.43094 2.74794 3.38944 2.80351 2.92773 3.26204C2.69521 3.49294 2.49246 3.70597 2.47718 3.7354C2.4573 3.77371 2.45135 3.82325 2.45622 3.90943C2.46231 4.01674 2.47632 4.05613 2.58422 4.26942C2.8278 4.75084 3.14894 5.17502 3.68016 5.717C4.20895 6.25649 4.73503 6.65795 5.27651 6.9352C5.47001 7.03429 5.50655 7.0471 5.59439 7.04655C5.65482 7.04618 5.71777 7.03342 5.75542 7.01395C5.78942 6.99633 6.00799 6.79332 6.24113 6.56281C6.54209 6.26525 6.68808 6.13328 6.74443 6.1078C6.85034 6.05993 6.98842 6.06008 7.08501 6.10815C7.19196 6.16138 8.43908 7.40278 8.4949 7.51157C8.52524 7.5707 8.53681 7.62238 8.53681 7.69882C8.53681 7.87925 8.5002 7.929 7.99835 8.4308C7.50137 8.9277 7.45523 8.96137 7.1906 9.02003C6.93572 9.07654 6.50647 9.03156 6.07141 8.90277C5.40991 8.70696 4.51879 8.23831 3.78638 7.70104C2.37463 6.66543 1.1632 5.08479 0.660242 3.62212C0.421201 2.92695 0.394659 2.42876 0.576959 2.05914C0.635006 1.94144 0.686643 1.88214 1.05433 1.5108C1.28108 1.28179 1.49743 1.07314 1.5351 1.04714C1.69303 0.938073 1.85574 0.926371 2.008 1.0131Z" fill="white"/>
</svg>
