<svg xmlns="http://www.w3.org/2000/svg" xmlns:xlink="http://www.w3.org/1999/xlink"><symbol id="icon-logo" viewBox="0 0 2586 1244"><path d="M277.123 665.078l75.469-.066-109.637 218.409-79.472.349 113.64-218.692zm476.69 68.746H607.646l-24.615 49.567h-79L641.23 521.449h79l137.196 261.942h-79l-24.613-49.567zm-120.788-51.092h95.79l-47.703-96.465-48.087 96.465zm569.435 100.659V599.422l-97.32 183.969h-67.93l-97.319-183.969v183.969h-70.793V521.449h96.175l105.907 198.268 105.9-198.268h95.79v261.942h-70.41zm454.56 0V599.422l-97.32 183.969h-67.92l-97.33-183.969v183.969h-70.79V521.449h96.18l105.9 198.268 105.9-198.268h95.79v261.942h-70.41zm121.2 0V521.449h265.43v55.858h-192.72v43.276h182.8v55.858h-182.8v51.092h195.39v55.858h-268.1zm376.14 0h-70.79V521.449h177.46c19.08 0 35.24 1.97 48.46 5.91 13.36 3.94 24.17 9.532 32.45 16.776 8.39 7.245 14.43 16.015 18.12 26.309 3.82 10.168 5.73 21.542 5.73 34.125 0 11.058-1.6 20.716-4.78 28.978-3.05 8.261-7.24 15.378-12.59 21.352-5.21 5.846-11.32 10.803-18.32 14.87a124.322 124.322 0 01-22.13 10.104l85.86 103.518h-82.81l-79.38-96.464h-77.28v96.464zm139.87-179.203c0-5.084-.7-9.405-2.1-12.964-1.27-3.558-3.56-6.418-6.87-8.579-3.3-2.288-7.76-3.94-13.35-4.956-5.48-1.017-12.35-1.526-20.61-1.526h-96.94v56.049h96.94c8.26 0 15.13-.508 20.61-1.525 5.59-1.016 10.05-2.605 13.35-4.766 3.31-2.288 5.6-5.211 6.87-8.77 1.4-3.559 2.1-7.879 2.1-12.963z" fill="#fff"/><path d="M362.99 485.939l73.914.119-62.596 124.013-76.351-.036 65.033-124.096z" fill="#C7E80A"/><path d="M503.779 491.93l74.088-.001-145.735 290.074-79.789-.001L503.779 491.93zm-293.344 0l74.089-.001-145.735 290.074L59 782.002 210.435 491.93z" fill="#fff"/></symbol><symbol id="icon-marker" viewBox="0 0 6 10">
<path fill-rule="evenodd" clip-rule="evenodd" d="M2.77826 0.503938C2.01212 0.585332 1.39633 0.884931 0.882667 1.4262C-0.0224558 2.37995 -0.256056 3.81377 0.29632 5.02512C0.411793 5.27835 2.79668 9.34364 2.87931 9.42813C2.98355 9.53467 3.14734 9.52112 3.23846 9.39839C3.30608 9.30731 5.60165 5.2617 5.68532 5.08615C5.82264 4.79801 5.91252 4.51018 5.97093 4.17159C6.00605 3.96793 6.01031 3.4245 5.97844 3.21246C5.87316 2.51196 5.58707 1.91333 5.12478 1.4262C4.66479 0.941493 4.08192 0.631423 3.43909 0.529439C3.30613 0.508355 2.88843 0.492235 2.77826 0.503938ZM3.35391 1.04851C3.87461 1.12505 4.39777 1.40115 4.77225 1.79707C5.12446 2.16946 5.3533 2.6193 5.46096 3.15086C5.5153 3.41923 5.51549 3.90681 5.46132 4.17159C5.41134 4.41605 5.33887 4.63594 5.24097 4.84033C5.19693 4.93229 4.68402 5.8456 4.10118 6.86992L3.04147 8.73233L1.93812 6.85867C1.33128 5.82816 0.801315 4.91486 0.760447 4.82909C0.596542 4.48518 0.518847 4.16307 0.504184 3.76682C0.459191 2.55056 1.1944 1.47181 2.30264 1.12797C2.63519 1.02479 3.0032 0.996982 3.35391 1.04851ZM2.73206 2.10401C2.16671 2.21697 1.70171 2.67318 1.54843 3.26525C1.4965 3.46586 1.49624 3.85463 1.54788 4.05719C1.66041 4.49848 1.9548 4.87759 2.34008 5.07744C2.57746 5.20058 2.71477 5.23284 3.00372 5.2334C3.29185 5.23395 3.4267 5.20229 3.66711 5.07758C4.05376 4.87703 4.34667 4.49985 4.45957 4.05719C4.51121 3.85463 4.51094 3.46586 4.45902 3.26525C4.31687 2.71621 3.89355 2.27079 3.3795 2.12938C3.20267 2.08074 2.90657 2.06914 2.73206 2.10401ZM3.20749 2.62475C3.36721 2.65986 3.55523 2.76565 3.68139 2.89139C3.80977 3.01935 3.88849 3.14455 3.95247 3.32259C3.98919 3.42477 3.99527 3.47056 3.99628 3.65243C3.99751 3.87695 3.98009 3.96005 3.89296 4.14519C3.77154 4.40315 3.50653 4.62285 3.23564 4.69013C2.61293 4.8448 2.0032 4.33891 2.0019 3.66649C2.00157 3.49428 2.02672 3.38014 2.10336 3.20619C2.22381 2.93282 2.49263 2.70268 2.77623 2.63017C2.88528 2.60228 3.09337 2.59967 3.20749 2.62475Z" fill="white"/>
</symbol><symbol id="icon-phone" viewBox="0 0 9 10">
<path fill-rule="evenodd" clip-rule="evenodd" d="M1.59895 0.51984C1.45448 0.556264 1.30842 0.638088 1.15902 0.766314C0.993354 0.908493 0.397078 1.51219 0.300021 1.63602C-0.0933639 2.13785 -0.0999686 2.91821 0.280631 3.92437C0.745608 5.15357 1.61672 6.39965 2.71833 7.41138C4.23753 8.80662 6.27048 9.71084 7.31863 9.4575C7.47386 9.41998 7.73197 9.30006 7.85056 9.21037C7.96958 9.12035 8.76854 8.30359 8.84273 8.19609C8.97985 7.9974 9.03274 7.73142 8.97976 7.50707C8.92053 7.25623 8.901 7.23225 8.13186 6.46585C7.35634 5.6931 7.33257 5.67406 7.07574 5.62008C6.87354 5.57756 6.66694 5.61504 6.46707 5.73048C6.42047 5.7574 6.20179 5.95701 5.98109 6.17408L5.57985 6.56874L5.45131 6.50215C5.13557 6.33859 4.90264 6.18151 4.55457 5.89736C4.19714 5.60558 3.69898 5.09259 3.42397 4.73311C3.2253 4.47342 2.93104 3.99354 2.93019 3.92786C2.93003 3.91526 3.06758 3.77116 3.23586 3.60765C3.58852 3.26498 3.7283 3.10468 3.80708 2.95259C3.9066 2.76042 3.92566 2.51843 3.8571 2.31725C3.78747 2.11285 3.72171 2.03542 3.04632 1.36262C2.37863 0.697511 2.27618 0.610074 2.08662 0.543454C1.95321 0.496577 1.7335 0.485931 1.59895 0.51984ZM2.008 1.0131C2.05819 1.0417 2.33972 1.3085 2.71947 1.68735C3.40709 2.37337 3.43266 2.40565 3.43176 2.58704C3.43094 2.74794 3.38944 2.80351 2.92773 3.26204C2.69521 3.49294 2.49246 3.70597 2.47718 3.7354C2.4573 3.77371 2.45135 3.82325 2.45622 3.90943C2.46231 4.01674 2.47632 4.05613 2.58422 4.26942C2.8278 4.75084 3.14894 5.17502 3.68016 5.717C4.20895 6.25649 4.73503 6.65795 5.27651 6.9352C5.47001 7.03429 5.50655 7.0471 5.59439 7.04655C5.65482 7.04618 5.71777 7.03342 5.75542 7.01395C5.78942 6.99633 6.00799 6.79332 6.24113 6.56281C6.54209 6.26525 6.68808 6.13328 6.74443 6.1078C6.85034 6.05993 6.98842 6.06008 7.08501 6.10815C7.19196 6.16138 8.43908 7.40278 8.4949 7.51157C8.52524 7.5707 8.53681 7.62238 8.53681 7.69882C8.53681 7.87925 8.5002 7.929 7.99835 8.4308C7.50137 8.9277 7.45523 8.96137 7.1906 9.02003C6.93572 9.07654 6.50647 9.03156 6.07141 8.90277C5.40991 8.70696 4.51879 8.23831 3.78638 7.70104C2.37463 6.66543 1.1632 5.08479 0.660242 3.62212C0.421201 2.92695 0.394659 2.42876 0.576959 2.05914C0.635006 1.94144 0.686643 1.88214 1.05433 1.5108C1.28108 1.28179 1.49743 1.07314 1.5351 1.04714C1.69303 0.938073 1.85574 0.926371 2.008 1.0131Z" fill="white"/>
</symbol><symbol id="icon-tg" viewBox="0 0 40 40">
<rect width="40" height="40" rx="20" fill="#27A6E5"/>
<path d="M28 12.6022L24.9946 28.2923C24.9946 28.2923 24.5741 29.3801 23.4189 28.8584L16.4846 23.3526L16.4524 23.3364C17.3891 22.4654 24.6524 15.7027 24.9698 15.3961C25.4613 14.9214 25.1562 14.6387 24.5856 14.9974L13.8568 22.053L9.71764 20.6108C9.71764 20.6108 9.06626 20.3708 9.00359 19.8491C8.9401 19.3265 9.73908 19.0439 9.73908 19.0439L26.6131 12.1889C26.6131 12.1889 28 11.5579 28 12.6022Z" fill="#FEFEFE"/>
</symbol><symbol id="icon-vk" viewBox="0 0 40 40">
<rect width="40" height="40" rx="20" fill="#0077FF"/>
<path d="M20.9825 27C13.466 27 9.17864 21.7447 9 13H12.7651C12.8888 19.4184 15.6646 22.1371 17.8632 22.6977V13H21.4085V18.5355C23.5796 18.2973 25.8607 15.7748 26.6302 13H30.1755C29.8855 14.4391 29.3075 15.8017 28.4776 17.0025C27.6477 18.2033 26.5837 19.2166 25.3523 19.979C26.7269 20.6756 27.941 21.6615 28.9145 22.8717C29.888 24.082 30.5988 25.489 31 27H27.0974C26.7373 25.6876 26.0054 24.5128 24.9934 23.6228C23.9814 22.7328 22.7343 22.1673 21.4085 21.997V27H20.9825Z" fill="white"/>
</symbol></svg>